<svg width="46" height="46" viewBox="0 0 46 46" fill="none" xmlns="http://www.w3.org/2000/svg">
<path d="M17.8237 4.36746C19.5708 -0.481994 26.4292 -0.481995 28.1763 4.36746V4.36746C29.1929 7.18912 32.2821 8.67678 35.122 7.71231V7.71231C40.0028 6.05471 44.2788 11.4167 41.5767 15.8063V15.8063C40.0045 18.3604 40.7674 21.7031 43.2921 23.3221V23.3221C47.6312 26.1046 46.1051 32.7909 40.9885 33.4152V33.4152C38.0113 33.7784 35.8736 36.4591 36.1819 39.4424V39.4424C36.7119 44.5697 30.5328 47.5454 26.8545 43.9342V43.9342C24.7144 41.8331 21.2856 41.8331 19.1455 43.9342V43.9342C15.4672 47.5454 9.2881 44.5697 9.81806 39.4424V39.4424C10.1264 36.4591 7.98865 33.7784 5.01153 33.4152V33.4152C-0.105122 32.7909 -1.63124 26.1046 2.70785 23.3221V23.3221C5.23255 21.7031 5.99551 18.3604 4.42328 15.8063V15.8063C1.72116 11.4167 5.99725 6.05471 10.878 7.71231V7.71231C13.7179 8.67678 16.8071 7.18912 17.8237 4.36746V4.36746Z" fill="#FFBB1D"/>
</svg>
