<svg width="67" height="67" viewBox="0 0 67 67" fill="none" xmlns="http://www.w3.org/2000/svg">
<path d="M17.1128 6.4229C17.5254 3.54394 20.775 2.05372 23.2259 3.61954L28.4622 6.9649C29.9751 7.93148 31.9467 7.77162 33.2842 6.57393L37.9131 2.4287C40.0797 0.488495 43.527 1.43573 44.398 4.21062L46.2589 10.1391C46.7965 11.8521 48.4096 12.9969 50.204 12.9391L56.4145 12.7392C59.3214 12.6455 61.3532 15.587 60.2368 18.2726L57.8515 24.0102C57.1624 25.668 57.6621 27.5819 59.0739 28.691L63.9599 32.5299C66.2469 34.3267 65.9127 37.886 63.3312 39.2256L57.8159 42.0877C56.2223 42.9147 55.375 44.702 55.7435 46.4592L57.0189 52.5406C57.6158 55.387 55.0719 57.8988 52.2333 57.2657L46.1686 55.913C44.4163 55.5221 42.6183 56.3467 41.7711 57.9296L38.8391 63.408C37.4667 65.9722 33.9034 66.2611 32.1359 63.9515L28.3595 59.017C27.2684 57.5912 25.3611 57.0671 23.6946 57.7351L17.9271 60.0472C15.2275 61.1294 12.3122 59.0602 12.4428 56.1548L12.7218 49.9473C12.8024 48.1538 11.6782 46.5263 9.97221 45.9669L4.06786 44.0307C1.30428 43.1245 0.400989 39.6654 2.36861 37.5237L6.57242 32.9479C7.78703 31.6258 7.97197 29.6564 7.02472 28.1313L3.74628 22.8528C2.21177 20.3822 3.74323 17.1518 6.6272 16.7759L12.7888 15.9728C14.5691 15.7407 15.9766 14.3509 16.2313 12.5738L17.1128 6.4229Z" fill="#1D55E5" stroke="black" stroke-width="2"/>
</svg>
