<svg width="146" height="146" viewBox="0 0 146 146" fill="none" xmlns="http://www.w3.org/2000/svg">
<g filter="url(#filter0_f_101_61)">
<path d="M67.8237 54.3675C69.5708 49.518 76.4292 49.518 78.1763 54.3675V54.3675C79.1929 57.1891 82.2821 58.6768 85.122 57.7123V57.7123C90.0028 56.0547 94.2788 61.4167 91.5767 65.8063V65.8063C90.0045 68.3604 90.7674 71.7031 93.2921 73.3221V73.3221C97.6312 76.1046 96.1051 82.7909 90.9885 83.4152V83.4152C88.0113 83.7784 85.8736 86.4591 86.1819 89.4424V89.4424C86.7119 94.5697 80.5328 97.5454 76.8545 93.9342V93.9342C74.7144 91.8331 71.2856 91.8331 69.1455 93.9342V93.9342C65.4672 97.5454 59.2881 94.5697 59.8181 89.4424V89.4424C60.1264 86.4591 57.9887 83.7784 55.0115 83.4152V83.4152C49.8949 82.7909 48.3688 76.1046 52.7079 73.3221V73.3221C55.2326 71.7031 55.9955 68.3604 54.4233 65.8063V65.8063C51.7212 61.4167 55.9972 56.0547 60.878 57.7123V57.7123C63.7179 58.6768 66.8071 57.1891 67.8237 54.3675V54.3675Z" fill="#1D8EE5"/>
</g>
<defs>
<filter id="filter0_f_101_61" x="0.170654" y="0.730347" width="145.659" height="144.796" filterUnits="userSpaceOnUse" color-interpolation-filters="sRGB">
<feFlood flood-opacity="0" result="BackgroundImageFix"/>
<feBlend mode="normal" in="SourceGraphic" in2="BackgroundImageFix" result="shape"/>
<feGaussianBlur stdDeviation="25" result="effect1_foregroundBlur_101_61"/>
</filter>
</defs>
</svg>
