<svg width="126" height="126" viewBox="0 0 126 126" fill="none" xmlns="http://www.w3.org/2000/svg">
<g filter="url(#filter0_f_101_59)">
<path d="M57.8237 44.3675C59.5708 39.518 66.4292 39.518 68.1763 44.3675V44.3675C69.1929 47.1891 72.2821 48.6768 75.122 47.7123V47.7123C80.0028 46.0547 84.2788 51.4167 81.5767 55.8063V55.8063C80.0045 58.3604 80.7674 61.7031 83.2921 63.3221V63.3221C87.6312 66.1046 86.1051 72.7909 80.9885 73.4152V73.4152C78.0113 73.7784 75.8736 76.4591 76.1819 79.4424V79.4424C76.7119 84.5697 70.5328 87.5454 66.8545 83.9342V83.9342C64.7144 81.8331 61.2856 81.8331 59.1455 83.9342V83.9342C55.4672 87.5454 49.2881 84.5697 49.8181 79.4424V79.4424C50.1264 76.4591 47.9887 73.7784 45.0115 73.4152V73.4152C39.8949 72.7909 38.3688 66.1046 42.7079 63.3221V63.3221C45.2326 61.7031 45.9955 58.3604 44.4233 55.8063V55.8063C41.7212 51.4167 45.9972 46.0547 50.878 47.7123V47.7123C53.7179 48.6768 56.8071 47.1891 57.8237 44.3675V44.3675Z" fill="#E5701D"/>
</g>
<defs>
<filter id="filter0_f_101_59" x="0.170654" y="0.730347" width="125.659" height="124.796" filterUnits="userSpaceOnUse" color-interpolation-filters="sRGB">
<feFlood flood-opacity="0" result="BackgroundImageFix"/>
<feBlend mode="normal" in="SourceGraphic" in2="BackgroundImageFix" result="shape"/>
<feGaussianBlur stdDeviation="20" result="effect1_foregroundBlur_101_59"/>
</filter>
</defs>
</svg>
