<svg width="93" height="95" viewBox="0 0 93 95" fill="none" xmlns="http://www.w3.org/2000/svg">
<g filter="url(#filter0_f_101_57)">
<path d="M40.5956 24.6654C42.4905 18.996 50.5095 18.996 52.4044 24.6654V24.6654C53.5162 27.9919 57.1672 29.7393 60.4609 28.5336V28.5336C65.9503 26.524 70.9931 32.4442 68.0942 37.5204L67.4115 38.7159C65.6679 41.7691 66.5499 45.6487 69.4422 47.6479L69.9826 48.0214C74.9376 51.4465 73.0144 59.1839 67.0423 59.9693V59.9693C63.57 60.426 61.0627 63.5533 61.397 67.0395L61.5017 68.1323C62.0583 73.9366 54.9569 77.1621 50.9521 72.924V72.924C48.5351 70.3662 44.4649 70.3662 42.0479 72.924V72.924C38.0431 77.1621 30.9417 73.9366 31.4983 68.1323L31.603 67.0395C31.9373 63.5533 29.43 60.426 25.9577 59.9693V59.9693C19.9856 59.1839 18.0624 51.4465 23.0174 48.0215L23.5578 47.6479C26.4501 45.6487 27.3321 41.7691 25.5885 38.7159L24.9058 37.5204C22.0069 32.4442 27.0497 26.524 32.5391 28.5336V28.5336C35.8328 29.7393 39.4838 27.9919 40.5956 24.6654V24.6654Z" fill="#FFBB1D"/>
</g>
<defs>
<filter id="filter0_f_101_57" x="0.190674" y="0.41333" width="92.6187" height="94.4467" filterUnits="userSpaceOnUse" color-interpolation-filters="sRGB">
<feFlood flood-opacity="0" result="BackgroundImageFix"/>
<feBlend mode="normal" in="SourceGraphic" in2="BackgroundImageFix" result="shape"/>
<feGaussianBlur stdDeviation="10" result="effect1_foregroundBlur_101_57"/>
</filter>
</defs>
</svg>
