<svg width="67" height="67" viewBox="0 0 67 67" fill="none" xmlns="http://www.w3.org/2000/svg">
<path d="M33.5185 3.04078C35.3874 0.812349 38.9343 1.26006 40.1908 3.883L42.8753 9.48688C43.651 11.106 45.4104 12.01 47.1784 11.6978L53.2974 10.6172C56.1615 10.1114 58.5907 12.7343 57.8673 15.5512L56.3217 21.5696C55.8751 23.3086 56.6418 25.132 58.1968 26.0292L63.5789 29.1347C66.098 30.5882 66.273 34.159 63.9081 35.8519L58.8555 39.4687C57.3957 40.5137 56.8109 42.4034 57.4254 44.0903L59.5521 49.9287C60.5475 52.6615 58.3864 55.5093 55.4866 55.286L49.2912 54.8089C47.5012 54.6711 45.8386 55.7428 45.225 57.43L43.1013 63.2695C42.1073 66.0028 38.6212 66.7952 36.5434 64.7602L32.1041 60.4124C30.8214 59.1562 28.8589 58.9085 27.3044 59.8065L21.9239 62.9148C19.4056 64.3696 16.2258 62.7358 15.9421 59.8413L15.3361 53.6572C15.161 51.8704 13.8169 50.4192 12.0488 50.1079L5.92916 49.0305C3.06484 48.5262 1.67914 45.2307 3.32241 42.831L6.83324 37.7042C7.84763 36.2229 7.75081 34.2472 6.59643 32.8722L2.60111 28.1133C0.731061 25.8858 1.78788 22.4706 4.58916 21.6886L10.5741 20.018C12.3033 19.5353 13.4991 17.9596 13.4986 16.1642L13.497 9.95051C13.4962 7.04214 16.5011 5.10522 19.1496 6.30684L24.8082 8.87407C26.4431 9.61582 28.372 9.17739 29.5257 7.80179L33.5185 3.04078Z" fill="#FFBB1D" stroke="black" stroke-width="2"/>
</svg>
